<?xml version="1.0" standalone="no"?>
<!DOCTYPE svg PUBLIC "-//W3C//DTD SVG 20010904//EN"
 "http://www.w3.org/TR/2001/REC-SVG-20010904/DTD/svg10.dtd">
<svg version="1.0" xmlns="http://www.w3.org/2000/svg"
 width="1024.000000pt" height="1024.000000pt" viewBox="0 0 1024.000000 1024.000000"
 preserveAspectRatio="xMidYMid meet">
<metadata>
Created by potrace 1.11, written by Peter Selinger 2001-2013
</metadata>
<g transform="translate(0.000000,1024.000000) scale(0.100000,-0.100000)"
fill="#000000" stroke="none">
<path d="M3808 8495 c-2 -1 -64 -5 -138 -9 -74 -3 -153 -8 -175 -10 -22 -3
-67 -7 -100 -10 -33 -3 -71 -8 -85 -11 -32 -6 -147 -26 -178 -30 -60 -8 -270
-61 -387 -97 -193 -61 -439 -162 -575 -238 -89 -49 -285 -166 -294 -175 -6 -6
-24 -20 -41 -31 -158 -100 -415 -328 -562 -495 -92 -106 -288 -400 -298 -449
-1 -3 -15 -34 -32 -70 -53 -114 -123 -350 -138 -467 -3 -21 -9 -67 -14 -103
-9 -65 -7 -402 2 -450 3 -14 8 -47 12 -75 10 -75 61 -269 96 -364 29 -78 125
-280 138 -291 3 -3 17 -25 30 -50 31 -57 173 -249 234 -315 26 -27 46 -53 47
-56 0 -12 -92 -194 -141 -277 -102 -173 -250 -379 -341 -472 -78 -81 -103
-149 -79 -212 19 -51 59 -65 174 -63 141 3 214 11 402 42 147 24 429 114 590
188 138 63 148 68 217 107 l66 39 104 -47 c215 -97 481 -187 673 -229 39 -9
79 -18 90 -20 50 -12 323 -56 364 -59 25 -2 93 -7 151 -12 178 -14 572 -8 730
11 19 2 58 7 85 10 162 18 526 93 610 125 17 7 37 13 45 15 87 20 351 125 500
200 163 81 413 238 545 342 213 167 402 357 525 528 273 381 391 745 384 1194
-1 97 -5 187 -7 201 -3 14 -11 61 -17 105 -19 128 -68 308 -101 367 -5 10 -9
22 -9 27 0 47 -236 453 -272 469 -5 2 -8 9 -8 15 0 25 -245 280 -384 399 -82
72 -252 198 -265 198 -5 0 -11 4 -13 9 -5 14 -247 159 -373 223 -195 99 -484
206 -700 258 -127 31 -116 29 -270 56 -159 28 -194 32 -405 49 -73 6 -407 14
-412 10z m303 -865 c38 -28 43 -49 43 -207 1 -99 4 -133 13 -134 7 -1 16 -2
21 -3 4 -1 32 -6 62 -10 63 -10 158 -40 215 -68 57 -29 168 -104 195 -133 26
-28 29 -74 7 -109 -19 -28 -210 -207 -240 -223 -35 -20 -80 -15 -133 14 -83
44 -135 51 -391 51 -256 0 -275 -3 -332 -53 -94 -84 -74 -268 35 -320 29 -14
523 -163 594 -180 40 -9 183 -57 221 -75 106 -47 251 -192 301 -300 58 -126
79 -205 78 -299 -1 -143 -17 -216 -73 -331 -92 -189 -309 -342 -515 -363 -23
-3 -46 -8 -50 -11 -4 -4 -7 -70 -7 -145 -1 -152 -10 -182 -63 -203 -35 -13
-319 -13 -354 1 -52 20 -63 55 -66 207 -1 77 -7 141 -12 144 -6 4 -30 7 -54 9
-88 4 -242 64 -351 136 -103 68 -129 109 -102 162 19 36 150 164 234 230 41
32 85 27 178 -18 l70 -34 267 -3 c191 -2 274 1 295 10 77 33 128 118 119 201
-6 62 -13 83 -39 119 -18 24 -91 63 -136 73 -9 2 -63 18 -120 35 -57 17 -111
33 -120 35 -9 2 -47 13 -86 25 -38 11 -95 28 -125 37 -195 55 -254 78 -340
132 -59 37 -164 140 -211 207 -71 103 -111 235 -111 369 0 121 16 192 69 302
51 107 148 214 249 280 68 44 192 88 268 97 26 2 50 7 53 10 3 3 6 67 7 143 2
178 13 200 108 212 29 3 108 5 176 4 107 -2 127 -5 153 -23z"/>
<path d="M7525 6123 c-1 -290 -8 -364 -50 -563 -25 -118 -74 -280 -110 -365
-40 -95 -56 -131 -65 -147 -5 -10 -27 -50 -48 -90 -41 -79 -159 -267 -192
-308 -11 -14 -34 -43 -51 -65 -151 -197 -400 -437 -645 -623 -101 -75 -315
-216 -409 -267 -159 -87 -431 -215 -457 -215 -8 0 -18 -4 -23 -9 -16 -13 -199
-77 -336 -116 -142 -40 -432 -102 -524 -111 -33 -4 -62 -8 -65 -9 -3 -2 -37
-6 -75 -10 -39 -4 -80 -8 -93 -10 -159 -25 -746 -25 -909 1 -18 3 -33 3 -33 0
0 -8 30 -63 63 -113 15 -24 27 -47 27 -52 0 -5 3 -11 8 -13 12 -5 72 -86 72
-97 0 -5 4 -11 8 -13 4 -1 29 -30 56 -63 84 -105 223 -243 351 -349 77 -64 77
-64 155 -121 88 -65 280 -188 280 -179 0 3 13 -4 29 -15 33 -24 333 -171 348
-171 5 0 28 -9 51 -20 22 -11 47 -20 55 -20 7 0 17 -3 21 -7 8 -8 58 -27 161
-59 193 -61 400 -109 560 -130 17 -2 41 -6 55 -9 13 -2 56 -7 95 -11 38 -3 81
-7 95 -10 128 -22 710 -22 805 0 11 3 43 7 70 10 232 21 665 124 865 204 97
39 141 57 185 77 28 12 72 32 99 44 l48 21 66 -36 c120 -66 327 -164 347 -164
4 0 21 -6 38 -14 47 -21 220 -73 317 -95 122 -29 121 -29 335 -56 22 -3 88 -7
146 -9 131 -4 163 7 191 71 28 64 12 118 -57 189 -36 38 -79 88 -115 134 -19
25 -37 47 -41 50 -32 27 -242 372 -305 505 l-37 75 60 68 c32 37 72 85 88 107
17 22 32 42 35 45 3 3 24 33 48 67 170 246 284 544 326 848 14 99 16 481 3
502 -3 5 -9 32 -12 59 -11 85 -52 254 -75 309 -5 11 -22 54 -38 95 -83 213
-174 359 -377 610 -64 79 -336 337 -384 364 -9 5 -18 12 -21 15 -20 24 -163
121 -294 200 -144 87 -264 148 -406 206 -63 26 -124 51 -135 55 -18 8 -172 60
-178 60 -1 0 -2 -116 -2 -257z"/>
</g>
</svg>
